<svg width="73" height="14" viewBox="0 0 73 14" fill="none" xmlns="http://www.w3.org/2000/svg">
<path d="M0.894531 13C0.653646 13 0.477865 12.9447 0.367188 12.834C0.25651 12.7233 0.201172 12.5475 0.201172 12.3066V1.53516C0.201172 1.29427 0.25651 1.12174 0.367188 1.01758C0.477865 0.906901 0.653646 0.851562 0.894531 0.851562H4.78125C5.97266 0.851562 6.98177 1.08594 7.80859 1.55469C8.64193 2.01693 9.27018 2.70052 9.69336 3.60547C10.123 4.51042 10.3379 5.61393 10.3379 6.91602C10.3379 8.22461 10.123 9.33138 9.69336 10.2363C9.27018 11.1413 8.64193 11.8281 7.80859 12.2969C6.98177 12.7656 5.97266 13 4.78125 13H0.894531ZM4.78125 10.7246C5.70573 10.7246 6.4056 10.4023 6.88086 9.75781C7.35612 9.10677 7.59375 8.15951 7.59375 6.91602C7.59375 5.67904 7.35612 4.73828 6.88086 4.09375C6.4056 3.44271 5.70573 3.11719 4.78125 3.11719H2.89648V10.7246H4.78125ZM13.209 13.0488C12.8574 13.0488 12.5938 13 12.418 12.9023C12.2487 12.8047 12.1641 12.6647 12.1641 12.4824V1.36914C12.1641 0.985026 12.5124 0.792969 13.209 0.792969H13.8145C14.1725 0.792969 14.4329 0.841797 14.5957 0.939453C14.765 1.03711 14.8496 1.18034 14.8496 1.36914V12.4824C14.8496 12.86 14.5046 13.0488 13.8145 13.0488H13.209ZM18.2188 13.0293C17.5221 13.0293 17.1738 12.847 17.1738 12.4824V1.53516C17.1738 1.29427 17.2292 1.12174 17.3398 1.01758C17.4505 0.906901 17.6263 0.851562 17.8672 0.851562H21.5195C22.6003 0.851562 23.5573 1.11523 24.3906 1.64258C25.224 2.16992 25.6406 3.17253 25.6406 4.65039C25.6406 5.66602 25.3997 6.45703 24.918 7.02344C24.4362 7.58333 23.8926 7.96094 23.2871 8.15625C22.6882 8.35156 22.1543 8.44922 21.6855 8.44922H19.8496V12.4824C19.8496 12.847 19.5013 13.0293 18.8047 13.0293H18.2188ZM21.3926 6.1543C21.8092 6.1543 22.1641 6.04362 22.457 5.82227C22.7565 5.60091 22.9062 5.21029 22.9062 4.65039C22.9062 4.08398 22.7565 3.68685 22.457 3.45898C22.1576 3.23112 21.8027 3.11719 21.3926 3.11719H19.8496V6.1543H21.3926ZM27.7695 13C27.5286 13 27.3529 12.9447 27.2422 12.834C27.1315 12.7233 27.0762 12.5475 27.0762 12.3066V1.36914C27.0762 1.18034 27.1608 1.04036 27.3301 0.949219C27.4993 0.851562 27.763 0.802734 28.1211 0.802734H28.707C29.0651 0.802734 29.3288 0.851562 29.498 0.949219C29.6673 1.04036 29.752 1.18034 29.752 1.36914V10.7246H33.6191C33.8014 10.7246 33.9316 10.793 34.0098 10.9297C34.0944 11.0664 34.1367 11.2845 34.1367 11.584V12.1309C34.1367 12.4368 34.0944 12.6582 34.0098 12.7949C33.9316 12.9316 33.8014 13 33.6191 13H27.7695ZM40.6211 13.1465C39.4362 13.1465 38.4271 12.9056 37.5938 12.4238C36.7669 11.9421 36.1354 11.2389 35.6992 10.3145C35.2695 9.38346 35.0547 8.25065 35.0547 6.91602C35.0547 5.58789 35.2695 4.46159 35.6992 3.53711C36.1354 2.60612 36.7669 1.90299 37.5938 1.42773C38.4271 0.945964 39.4362 0.705078 40.6211 0.705078C41.8125 0.705078 42.8216 0.945964 43.6484 1.42773C44.4818 1.90299 45.1133 2.60612 45.543 3.53711C45.9727 4.46159 46.1875 5.58789 46.1875 6.91602C46.1875 8.25065 45.9727 9.38346 45.543 10.3145C45.1133 11.2389 44.4818 11.9421 43.6484 12.4238C42.8216 12.9056 41.8125 13.1465 40.6211 13.1465ZM40.6211 10.8613C41.5521 10.8613 42.2552 10.526 42.7305 9.85547C43.2057 9.17839 43.4434 8.19857 43.4434 6.91602C43.4434 5.63346 43.2057 4.66016 42.7305 3.99609C42.2552 3.33203 41.5521 3 40.6211 3C39.6966 3 38.9935 3.33529 38.5117 4.00586C38.0365 4.66992 37.7988 5.63997 37.7988 6.91602C37.7988 8.19857 38.0397 9.17839 38.5215 9.85547C39.0033 10.526 39.7031 10.8613 40.6211 10.8613ZM49.2148 13.0293C48.5182 13.0293 48.1699 12.847 48.1699 12.4824V1.36914C48.1699 1.18034 48.2546 1.04036 48.4238 0.949219C48.5931 0.851562 48.8568 0.802734 49.2148 0.802734H50.1328C50.6862 0.802734 51.0475 0.96224 51.2168 1.28125L54.1367 6.4668L54.2832 6.7207L54.4297 6.41797L57.3691 1.28125C57.5449 0.96224 57.9095 0.802734 58.4629 0.802734H59.3711C60.0677 0.802734 60.416 0.991536 60.416 1.36914V12.4824C60.416 12.847 60.0677 13.0293 59.3711 13.0293H58.8633C58.1667 13.0293 57.8184 12.847 57.8184 12.4824V5.28516L57.75 5.26562L55.2305 9.76758C55.0807 9.98893 54.8496 10.0996 54.5371 10.0996H54.0391C53.8763 10.0996 53.7396 10.0736 53.6289 10.0215C53.5182 9.96289 53.4238 9.87826 53.3457 9.76758L50.8164 5.26562L50.748 5.28516V12.4824C50.748 12.847 50.403 13.0293 49.7129 13.0293H49.2148ZM62.6621 13.0293C61.9525 13.0293 61.5977 12.9023 61.5977 12.6484C61.5977 12.5768 61.6204 12.4727 61.666 12.3359L65.4941 1.17383C65.5853 0.926432 65.9141 0.802734 66.4805 0.802734H67.3789C67.9453 0.802734 68.2741 0.926432 68.3652 1.17383L72.1934 12.3359C72.2259 12.4661 72.2422 12.5703 72.2422 12.6484C72.2422 12.7786 72.1706 12.8763 72.0273 12.9414C71.8906 13 71.6725 13.0293 71.373 13.0293H70.6113C70.3379 13.0293 70.1165 13.0033 69.9473 12.9512C69.7845 12.8926 69.6836 12.7982 69.6445 12.668L68.9414 10.5488H64.8496L64.1465 12.668C64.0749 12.9089 63.8079 13.0293 63.3457 13.0293H62.6621ZM68.1992 8.25391L67.2129 5.16797C67.1543 5.01172 67.1022 4.83268 67.0566 4.63086C67.0176 4.42904 66.9818 4.23698 66.9492 4.05469H66.8809L66.8418 4.26953C66.7767 4.65365 66.7018 4.95312 66.6172 5.16797L65.5918 8.25391H68.1992Z" fill="#003E6E"/>
</svg>
