<svg width="16" height="16" viewBox="0 0 16 16" fill="none" xmlns="http://www.w3.org/2000/svg">
<path d="M6.34652 1.33783C6.1271 1.32186 5.90227 1.34429 5.6818 1.40944L4.89274 1.64316C4.05192 1.89183 3.39496 2.55896 3.17269 3.40098C2.67916 5.27356 3.24374 7.49003 4.71305 9.98496C6.1803 12.4764 7.85218 14.0599 9.7404 14.5768C10.5907 14.8095 11.5078 14.5872 12.1519 13.9889L12.7521 13.4322C13.4238 12.8086 13.5239 11.7699 12.9813 11.0318L12.1141 9.8541C11.6492 9.22272 10.8298 8.95391 10.0763 9.18027L8.71956 9.58652C8.66261 9.60315 8.52632 9.52559 8.40771 9.42311L8.40706 9.42246C8.19582 9.23877 7.90313 8.8675 7.59001 8.33652V8.33587C7.25425 7.76563 7.11104 7.39269 7.05355 7.17246C6.99603 6.95213 7.00998 6.92532 7.01839 6.85085C7.02276 6.81368 7.04042 6.77925 7.07047 6.75189L7.07113 6.75124L8.08284 5.82611C8.66248 5.29622 8.83746 4.44944 8.51058 3.73691L7.90055 2.40618V2.40553C7.61335 1.7795 7.0046 1.3857 6.34652 1.33783ZM6.27425 2.33522C6.58032 2.35809 6.86216 2.54167 6.99105 2.82285L7.60172 4.15358C7.74951 4.47572 7.6754 4.84436 7.40836 5.08848L6.39665 6.01296C6.18924 6.20206 6.05661 6.45989 6.0249 6.73822V6.73887C6.01664 6.81206 5.99712 7.08423 6.0861 7.42506C6.17508 7.7659 6.35878 8.2167 6.72803 8.84368H6.72868C7.07321 9.42802 7.39882 9.87195 7.75146 10.1783H7.75211C7.86664 10.2775 8.3466 10.7375 8.99951 10.5468L9.00146 10.5462L10.3641 10.138C10.7179 10.0317 11.0963 10.1586 11.3088 10.4472L12.1759 11.6249C12.4215 11.9595 12.3786 12.4143 12.0718 12.6992L11.4715 13.2564C11.0876 13.6132 10.5176 13.7525 10.0041 13.6119C8.47761 13.1941 6.96711 11.8416 5.57503 9.4778C4.18101 7.11073 3.74501 5.15294 4.13948 3.65618C4.26988 3.1622 4.66941 2.75215 5.17659 2.60215L5.96501 2.36842C6.06771 2.33807 6.17223 2.3276 6.27425 2.33522Z" fill="#535D6A"/>
</svg>
