<svg width="20" height="20" viewBox="0 0 20 20" fill="none" xmlns="http://www.w3.org/2000/svg">
<path d="M17.9129 5.26254C17.6004 4.14691 16.9816 3.26566 16.0754 2.64222C14.9316 1.85316 13.616 1.57503 12.4801 1.40472C10.9082 1.17035 9.48477 1.13753 8.12695 1.30316C6.85508 1.45941 5.89727 1.70785 5.02383 2.10941C3.31133 2.89691 2.2832 4.17035 1.96914 5.89379C1.81602 6.73129 1.71289 7.48753 1.65352 8.20941C1.51602 9.87816 1.64102 11.3547 2.03477 12.7235C2.41914 14.0578 3.08945 15.011 4.08477 15.6375C4.33789 15.7969 4.66289 15.9125 4.97695 16.0235C5.15508 16.086 5.32852 16.1469 5.4707 16.2141C5.60195 16.275 5.60195 16.286 5.60039 16.3953C5.58945 17.3438 5.60039 19.2032 5.60039 19.2032L5.60352 19.6H6.31602L6.43164 19.4875C6.5082 19.4157 8.27383 17.7094 8.90352 17.0219L8.98945 16.9266C9.09727 16.8016 9.09727 16.8016 9.2082 16.8C10.0582 16.7828 10.927 16.75 11.7895 16.7032C12.8348 16.6469 14.0457 16.5453 15.1863 16.0703C16.2301 15.6344 16.9926 14.9422 17.4504 14.0141C17.9285 13.0453 18.2113 11.9969 18.3176 10.8078C18.5051 8.71722 18.3723 6.90316 17.9129 5.26254ZM14.1535 13.3922C13.891 13.8188 13.5004 14.1157 13.0395 14.3078C12.702 14.4485 12.3582 14.4188 12.0254 14.2782C9.23945 13.0985 7.05352 11.2407 5.60977 8.56878C5.31133 8.01878 5.10508 7.41879 4.86758 6.83754C4.81914 6.71879 4.82227 6.57816 4.80039 6.44691C4.8207 5.50785 5.54102 4.97816 6.26914 4.81879C6.54727 4.75629 6.79414 4.85472 7.00039 5.05316C7.57227 5.59691 8.02383 6.22972 8.36445 6.9391C8.51289 7.25004 8.4457 7.52503 8.19258 7.75628C8.13945 7.80472 8.08477 7.84847 8.02695 7.89222C7.44883 8.3266 7.36445 8.65628 7.67227 9.31097C8.19727 10.425 9.06914 11.1735 10.1957 11.6375C10.4926 11.7594 10.7723 11.6985 10.9988 11.4578C11.0301 11.4266 11.0645 11.3953 11.0863 11.3578C11.5301 10.6172 12.1754 10.6907 12.7707 11.1125C13.1613 11.3907 13.541 11.6844 13.927 11.9672C14.516 12.4 14.5113 12.8063 14.1535 13.3922ZM10.4582 6.00004C10.327 6.00004 10.1957 6.01097 10.066 6.03285C9.84727 6.06879 9.64258 5.92191 9.60508 5.70316C9.56914 5.48597 9.71602 5.27972 9.93477 5.24379C10.1066 5.2141 10.2832 5.20004 10.4582 5.20004C12.191 5.20004 13.6004 6.60941 13.6004 8.34222C13.6004 8.51878 13.5863 8.69535 13.5566 8.86566C13.5238 9.06097 13.3551 9.20004 13.1629 9.20004C13.141 9.20004 13.1191 9.19847 13.0957 9.19379C12.8785 9.15785 12.7316 8.9516 12.7676 8.73441C12.7895 8.60628 12.8004 8.47503 12.8004 8.34222C12.8004 7.0516 11.7488 6.00004 10.4582 6.00004ZM12.4004 8.40003C12.4004 8.62035 12.2207 8.80004 12.0004 8.80004C11.7801 8.80004 11.6004 8.62035 11.6004 8.40003C11.6004 7.7391 11.0613 7.20004 10.4004 7.20004C10.1801 7.20004 10.0004 7.02035 10.0004 6.80004C10.0004 6.57972 10.1801 6.40004 10.4004 6.40004C11.5035 6.40004 12.4004 7.29691 12.4004 8.40003ZM14.6848 9.2891C14.6426 9.47504 14.477 9.60004 14.2941 9.60004C14.2645 9.60004 14.2348 9.59691 14.2051 9.59066C13.9895 9.54066 13.8551 9.3266 13.9035 9.11097C13.9613 8.85628 13.991 8.59222 13.991 8.3266C13.991 6.38285 12.4082 4.80004 10.4645 4.80004C10.1988 4.80004 9.93477 4.82972 9.68008 4.88754C9.46445 4.93754 9.25039 4.8016 9.20195 4.58597C9.15195 4.37035 9.28789 4.15629 9.50352 4.10785C9.81602 4.03597 10.1395 4.00003 10.4645 4.00003C12.8504 4.00003 14.791 5.94066 14.791 8.3266C14.791 8.6516 14.7551 8.97504 14.6848 9.2891Z" fill="#003E6E"/>
</svg>
