<svg width="95" height="20" viewBox="0 0 95 20" fill="none" xmlns="http://www.w3.org/2000/svg">
<path fill-rule="evenodd" clip-rule="evenodd" d="M4.48398 19.8555C6.13501 19.8555 7.69835 19.4766 9.04492 18.7738C10.4422 18.0415 11.5165 17.0864 12.2777 15.9122C13.089 14.6369 13.5044 13.2734 13.5044 11.8089C13.5044 10.3361 13.089 8.97226 12.2777 7.69722C11.5029 6.49784 10.3867 5.50049 9.04492 4.78934C7.69835 4.08226 6.13501 3.70359 4.48398 3.70359H1.43601C0.661113 3.70359 0.0664062 4.23377 0.0664062 4.94085V18.6224C0.0664062 19.325 0.661113 19.8555 1.43601 19.8555H4.48398ZM48.1945 19.8056C48.9737 19.8056 49.5825 19.2754 49.5825 18.5684V7.49943C49.5825 6.79235 48.9737 6.26217 48.1945 6.26217C47.4198 6.26217 46.8249 6.79421 46.8249 7.49943V18.5684C46.8249 19.2736 47.4198 19.8056 48.1945 19.8056ZM2.82391 17.0803V6.50377C2.82391 6.36147 2.93942 6.24527 3.08113 6.24527H4.56713C6.27353 6.25801 7.82283 6.86385 8.94799 7.87403C10.0687 8.89669 10.7466 10.2855 10.7466 11.8089C10.7466 13.3745 10.0825 14.7505 8.93402 15.7607C7.7814 16.758 6.21812 17.3388 4.49798 17.3388H3.08113C2.93942 17.3388 2.82391 17.2226 2.82391 17.0803ZM28.4085 19.784C28.5608 19.8343 28.7269 19.8596 28.8929 19.8596C29.1003 19.8596 29.2938 19.8218 29.4739 19.7459C29.958 19.544 30.2347 19.14 30.2347 18.6686C30.2347 18.454 30.1932 18.2646 30.0962 18.0878L23.6772 4.45686C23.4558 3.96447 22.9854 3.69925 22.4321 3.69925C21.8648 3.69925 21.4084 3.97704 21.1731 4.46943L14.6847 18.0878C14.5879 18.2646 14.5465 18.454 14.5465 18.6686C14.5465 19.14 14.8231 19.544 15.3212 19.7459C15.515 19.8218 15.7084 19.8596 15.9158 19.8596C16.0683 19.8596 16.2344 19.8343 16.4141 19.7713C16.7739 19.6575 17.0228 19.4431 17.1751 19.102L18.808 15.5118C18.8508 15.4176 18.939 15.3608 19.0419 15.3608H25.7262C25.8288 15.3608 25.9166 15.4171 25.9597 15.5106L27.62 19.1147C27.7998 19.4431 28.0628 19.6703 28.4085 19.784ZM20.1917 12.478L22.1304 8.22058C22.1731 8.12669 22.261 8.06987 22.3637 8.06961C22.4664 8.06934 22.5545 8.1258 22.5977 8.21952L24.5596 12.4769C24.5975 12.5593 24.5916 12.6482 24.5429 12.7248C24.4942 12.8013 24.4166 12.8441 24.3261 12.8441H20.4256C20.3355 12.8441 20.2579 12.8015 20.2093 12.7252C20.1604 12.649 20.1543 12.5603 20.1917 12.478ZM33.698 19.8596C34.4772 19.8596 35.086 19.3294 35.086 18.6224V13.4981C35.086 13.3558 35.2015 13.2396 35.3431 13.2396H37.0579C37.1479 13.2396 37.2252 13.282 37.274 13.358L41.0441 19.2284C41.2239 19.5187 41.4868 19.7081 41.8604 19.809C41.9709 19.8471 42.0955 19.8596 42.2338 19.8596C42.4735 19.8596 42.6812 19.809 42.8888 19.7081C43.2208 19.5565 43.4421 19.3041 43.5667 18.9633C43.6081 18.837 43.6359 18.7107 43.6359 18.5971C43.6359 18.3952 43.5667 18.1931 43.4421 18.0038L40.339 13.2387C40.295 13.171 40.2847 13.0945 40.3096 13.0175C40.3344 12.9404 40.3872 12.8844 40.4625 12.8556C41.3366 12.5201 42.1186 11.9608 42.6812 11.266C43.3038 10.4958 43.6635 9.51102 43.6635 8.48837C43.6635 7.17961 43.0962 5.96757 42.1092 5.09651C41.1132 4.22102 39.776 3.70359 38.3278 3.70359H33.698C32.9232 3.70359 32.3284 4.23377 32.3284 4.94085V18.6224C32.3284 19.3294 32.9232 19.8596 33.698 19.8596ZM35.086 10.4647V6.45341C35.086 6.31111 35.2015 6.19501 35.3431 6.19501H38.3278C39.029 6.19501 39.6655 6.43465 40.1448 6.83872C40.6292 7.2427 40.9058 7.8235 40.9058 8.42952C40.9058 9.03138 40.6429 9.61217 40.1588 10.0286C39.6793 10.4708 39.015 10.7231 38.3418 10.7231H35.3431C35.2015 10.7231 35.086 10.607 35.086 10.4647ZM59.4119 19.8555C60.8597 19.8555 62.2111 19.3504 63.1934 18.4752C64.1801 17.6165 64.7475 16.4297 64.7475 15.0999C64.7475 13.5218 63.9448 12.1582 62.5983 11.2619C63.5438 10.4411 64.0832 9.33438 64.0832 8.13085C64.0832 6.93545 63.5577 5.81598 62.6769 4.99554C61.7822 4.18324 60.5647 3.70359 59.2458 3.70359H54.4747C53.6999 3.70359 53.105 4.23377 53.105 4.94085V18.618C53.105 19.325 53.6999 19.8555 54.4747 19.8555H59.4119ZM55.7549 10.0563V6.47846C55.7549 6.33615 55.8704 6.22005 56.0121 6.22005H59.0936C59.6885 6.22005 60.2604 6.44748 60.6616 6.80925C61.0629 7.17545 61.3256 7.68881 61.3256 8.20651C61.3256 8.7073 61.0905 9.23757 60.703 9.62465C60.3018 10.0414 59.7577 10.3023 59.1628 10.3148H56.0121C55.8704 10.3148 55.7549 10.1987 55.7549 10.0563ZM55.7549 17.0803V12.846C55.7549 12.7037 55.8704 12.5875 56.0121 12.5875H59.3149C60.0159 12.5875 60.6939 12.8399 61.2011 13.2565C61.6992 13.6733 61.9897 14.2791 61.9897 14.923C61.9897 15.5417 61.6992 16.152 61.2011 16.6065C60.7076 17.061 60.0299 17.3388 59.3149 17.3388H56.0121C55.8704 17.3388 55.7549 17.2226 55.7549 17.0803ZM81.4224 18.0878L75.0032 4.45686C74.7817 3.96447 74.3115 3.69925 73.7581 3.69925C73.1908 3.69925 72.7344 3.97704 72.4993 4.46943L66.0107 18.0878C65.7693 18.5289 65.8895 19.0181 66.097 19.3259C66.6082 20.0839 68.0122 20.1975 68.501 19.102L70.134 15.5118C70.1768 15.4176 70.265 15.3608 70.3679 15.3608H77.0524C77.1549 15.3608 77.2427 15.4171 77.2857 15.5106L78.9459 19.1147C79.7975 20.6695 82.2223 19.5472 81.4224 18.0878ZM71.5178 12.478L73.4564 8.22058C73.4993 8.12669 73.587 8.06987 73.6897 8.06961C73.7925 8.06943 73.8805 8.1258 73.9237 8.21952L75.8855 12.4769C75.9235 12.5593 75.9175 12.6482 75.8689 12.7248C75.8202 12.8013 75.7426 12.8441 75.6521 12.8441H71.7516C71.6614 12.8441 71.5838 12.8015 71.5352 12.7252C71.4865 12.649 71.4802 12.5603 71.5178 12.478ZM86.4119 18.6224V13.4981C86.4119 13.3558 86.5274 13.2396 86.6691 13.2396H88.3839C88.4739 13.2396 88.5512 13.282 88.6 13.358L92.3702 19.2284C92.8484 20.0006 93.8347 20.0898 94.4426 19.7043C94.9698 19.3692 95.1948 18.6518 94.7684 18.0038L91.6652 13.2387C91.6208 13.171 91.6108 13.0945 91.6353 13.0175C91.6607 12.9404 91.7133 12.8844 91.7886 12.8556C92.6624 12.5201 93.4445 11.9608 94.0071 11.266C94.6295 10.4958 94.9898 9.51102 94.9898 8.48837C94.9898 7.17961 94.4218 5.96757 93.4355 5.09651C92.4392 4.22102 91.1017 3.70359 89.6538 3.70359H85.0239C84.2492 3.70359 83.6545 4.23377 83.6545 4.94085V18.6224C83.6545 20.2711 86.4119 20.2493 86.4119 18.6224ZM86.4119 10.4647V6.45341C86.4119 6.31111 86.5274 6.19501 86.6691 6.19501H89.6538C90.355 6.19501 90.9911 6.43465 91.471 6.83872C91.9556 7.2427 92.2314 7.8235 92.2314 8.42952C92.2314 9.03138 91.9692 9.61217 91.4846 10.0286C91.0056 10.4708 90.341 10.7231 89.6678 10.7231H86.6691C86.5274 10.7231 86.4119 10.607 86.4119 10.4647Z" fill="white"/>
<path d="M43.5852 1.52419C43.3405 1.03623 43.5476 0.446846 44.0481 0.208262C44.5484 -0.030499 45.1527 0.171713 45.3974 0.659678C45.6539 1.16932 46.0518 1.58826 46.5326 1.88021C47.01 2.1703 47.5711 2.33242 48.1592 2.33242C48.7539 2.33242 49.3193 2.16809 49.7972 1.87481C50.2799 1.57879 50.678 1.15357 50.9327 0.636137C51.173 0.14596 51.7755 -0.0613837 52.278 0.172864C52.7806 0.4072 52.9932 0.994811 52.7529 1.48499C52.3278 2.34853 51.6688 3.05401 50.8733 3.54198C50.0726 4.03322 49.1358 4.30835 48.1592 4.30835C47.1896 4.30835 46.2597 4.03826 45.4644 3.55508C44.6731 3.07472 44.0153 2.37826 43.5852 1.52419Z" fill="#08D17A"/>
</svg>
