<svg width="58" height="14" viewBox="0 0 58 14" fill="none" xmlns="http://www.w3.org/2000/svg">
<path d="M6.49414 13.1465C4.54102 13.1465 3.09896 12.6387 2.16797 11.623C1.24349 10.6074 0.78125 9.02865 0.78125 6.88672C0.78125 2.76562 2.71484 0.705078 6.58203 0.705078C7.10938 0.705078 7.66276 0.757161 8.24219 0.861328C8.82812 0.965495 9.31641 1.11198 9.70703 1.30078C10.0977 1.48307 10.293 1.68815 10.293 1.91602C10.293 2.07878 10.2279 2.29362 10.0977 2.56055C9.96745 2.82096 9.81445 3.05208 9.63867 3.25391C9.46289 3.45573 9.30664 3.55664 9.16992 3.55664C9.13086 3.55664 9.03646 3.52409 8.88672 3.45898C8.5612 3.32878 8.2194 3.22135 7.86133 3.13672C7.50326 3.04557 7.06055 3 6.5332 3C5.51107 3 4.7526 3.32552 4.25781 3.97656C3.76953 4.62109 3.52539 5.59766 3.52539 6.90625C3.52539 8.21484 3.77279 9.20117 4.26758 9.86523C4.76237 10.5293 5.50456 10.8613 6.49414 10.8613C6.99544 10.8613 7.44792 10.819 7.85156 10.7344V8.53711H6.31836C6.13607 8.53711 6.0026 8.46875 5.91797 8.33203C5.83984 8.19531 5.80078 7.97396 5.80078 7.66797V7.11133C5.80078 6.81185 5.83984 6.59375 5.91797 6.45703C6.0026 6.32031 6.13607 6.25195 6.31836 6.25195H9.84375C10.0911 6.25195 10.2702 6.30729 10.3809 6.41797C10.4915 6.52214 10.5469 6.69466 10.5469 6.93555V11.7695C10.5469 12.2904 10.1107 12.6517 9.23828 12.8535C8.36589 13.0488 7.45117 13.1465 6.49414 13.1465ZM38.9648 13C38.724 13 38.5482 12.9447 38.4375 12.834C38.3268 12.7233 38.2715 12.5475 38.2715 12.3066V1.53516C38.2715 1.29427 38.3268 1.12174 38.4375 1.01758C38.5482 0.906901 38.724 0.851562 38.9648 0.851562H42.8516C44.043 0.851562 45.0521 1.08594 45.8789 1.55469C46.7122 2.01693 47.3405 2.70052 47.7637 3.60547C48.1934 4.51042 48.4082 5.61393 48.4082 6.91602C48.4082 8.22461 48.1934 9.33138 47.7637 10.2363C47.3405 11.1413 46.7122 11.8281 45.8789 12.2969C45.0521 12.7656 44.043 13 42.8516 13H38.9648ZM42.8516 10.7246C43.776 10.7246 44.4759 10.4023 44.9512 9.75781C45.4264 9.10677 45.6641 8.15951 45.6641 6.91602C45.6641 5.67904 45.4264 4.73828 44.9512 4.09375C44.4759 3.44271 43.776 3.11719 42.8516 3.11719H40.9668V10.7246H42.8516ZM53.6035 13.1465C52.7832 13.1465 52.0605 13.0651 51.4355 12.9023C50.8171 12.7331 50.3418 12.528 50.0098 12.2871C49.6842 12.0462 49.5215 11.8184 49.5215 11.6035C49.5215 11.4342 49.5833 11.2259 49.707 10.9785C49.8372 10.7311 49.9902 10.5195 50.166 10.3438C50.3418 10.1615 50.4883 10.0703 50.6055 10.0703C50.6771 10.0703 50.8301 10.1322 51.0645 10.2559C51.416 10.4382 51.748 10.5846 52.0605 10.6953C52.3796 10.806 52.7441 10.8613 53.1543 10.8613C53.61 10.8613 53.9941 10.7734 54.3066 10.5977C54.6257 10.4154 54.7852 10.0996 54.7852 9.65039C54.7852 9.38997 54.7038 9.16536 54.541 8.97656C54.3783 8.78776 54.1699 8.62826 53.916 8.49805C53.6621 8.36784 53.3171 8.21484 52.8809 8.03906L52.1094 7.70703C51.6406 7.47917 51.237 7.22852 50.8984 6.95508C50.5664 6.68164 50.293 6.32031 50.0781 5.87109C49.8698 5.42188 49.7656 4.87174 49.7656 4.2207C49.7656 3.42643 49.9609 2.76562 50.3516 2.23828C50.7422 1.71094 51.25 1.32357 51.875 1.07617C52.5 0.828776 53.1706 0.705078 53.8867 0.705078C54.4727 0.705078 55.0033 0.766927 55.4785 0.890625C55.9538 1.00781 56.3249 1.16081 56.5918 1.34961C56.8652 1.53841 57.002 1.72721 57.002 1.91602C57.002 2.07227 56.9499 2.27409 56.8457 2.52148C56.748 2.76237 56.6243 2.97396 56.4746 3.15625C56.3249 3.33854 56.1849 3.42969 56.0547 3.42969C55.9961 3.42969 55.8919 3.39714 55.7422 3.33203C55.5013 3.23438 55.2572 3.15625 55.0098 3.09766C54.7689 3.03255 54.4727 3 54.1211 3C53.5156 3 53.0957 3.09766 52.8613 3.29297C52.627 3.48177 52.5098 3.70638 52.5098 3.9668C52.5098 4.26628 52.5879 4.51693 52.7441 4.71875C52.9069 4.92057 53.1087 5.08659 53.3496 5.2168C53.597 5.34701 53.9388 5.49674 54.375 5.66602C55.0326 5.94596 55.5697 6.21289 55.9863 6.4668C56.403 6.71419 56.7611 7.07227 57.0605 7.54102C57.3665 8.00977 57.5195 8.60872 57.5195 9.33789C57.5195 10.2298 57.3307 10.9622 56.9531 11.5352C56.582 12.1016 56.1003 12.5117 55.5078 12.7656C54.9219 13.0195 54.2871 13.1465 53.6035 13.1465Z" fill="#003E6E"/>
<path d="M18.0273 13.1465C16.8424 13.1465 15.8333 12.9056 15 12.4238C14.1732 11.9421 13.5417 11.2389 13.1055 10.3145C12.6758 9.38346 12.4609 8.25065 12.4609 6.91602C12.4609 5.58789 12.6758 4.46159 13.1055 3.53711C13.5417 2.60612 14.1732 1.90299 15 1.42773C15.8333 0.945964 16.8424 0.705078 18.0273 0.705078C19.2188 0.705078 20.2279 0.945964 21.0547 1.42773C21.888 1.90299 22.5195 2.60612 22.9492 3.53711C23.3789 4.46159 23.5938 5.58789 23.5938 6.91602C23.5938 8.25065 23.3789 9.38346 22.9492 10.3145C22.5195 11.2389 21.888 11.9421 21.0547 12.4238C20.2279 12.9056 19.2188 13.1465 18.0273 13.1465ZM18.0273 10.8613C18.9583 10.8613 19.6615 10.526 20.1367 9.85547C20.612 9.17839 20.8496 8.19857 20.8496 6.91602C20.8496 5.63346 20.612 4.66016 20.1367 3.99609C19.6615 3.33203 18.9583 3 18.0273 3C17.1029 3 16.3997 3.33529 15.918 4.00586C15.4427 4.66992 15.2051 5.63997 15.2051 6.91602C15.2051 8.19857 15.446 9.17839 15.9277 9.85547C16.4095 10.526 17.1094 10.8613 18.0273 10.8613ZM30.7227 13.1465C29.5378 13.1465 28.5286 12.9056 27.6953 12.4238C26.8685 11.9421 26.237 11.2389 25.8008 10.3145C25.3711 9.38346 25.1562 8.25065 25.1562 6.91602C25.1562 5.58789 25.3711 4.46159 25.8008 3.53711C26.237 2.60612 26.8685 1.90299 27.6953 1.42773C28.5286 0.945964 29.5378 0.705078 30.7227 0.705078C31.9141 0.705078 32.9232 0.945964 33.75 1.42773C34.5833 1.90299 35.2148 2.60612 35.6445 3.53711C36.0742 4.46159 36.2891 5.58789 36.2891 6.91602C36.2891 8.25065 36.0742 9.38346 35.6445 10.3145C35.2148 11.2389 34.5833 11.9421 33.75 12.4238C32.9232 12.9056 31.9141 13.1465 30.7227 13.1465ZM30.7227 10.8613C31.6536 10.8613 32.3568 10.526 32.832 9.85547C33.3073 9.17839 33.5449 8.19857 33.5449 6.91602C33.5449 5.63346 33.3073 4.66016 32.832 3.99609C32.3568 3.33203 31.6536 3 30.7227 3C29.7982 3 29.0951 3.33529 28.6133 4.00586C28.138 4.66992 27.9004 5.63997 27.9004 6.91602C27.9004 8.19857 28.1413 9.17839 28.623 9.85547C29.1048 10.526 29.8047 10.8613 30.7227 10.8613Z" fill="#08D17A"/>
</svg>
